<svg width="22" height="22" viewBox="0 0 22 22" fill="none" xmlns="http://www.w3.org/2000/svg">
<path d="M13.9702 20.4142H13.851C9.78105 20.4142 7.81938 18.81 7.48021 15.2167C7.44355 14.8408 7.71855 14.5016 8.10355 14.465C8.47938 14.4283 8.81855 14.7125 8.85521 15.0883C9.12105 17.9666 10.4777 19.0392 13.8602 19.0392H13.9794C17.7102 19.0392 19.0302 17.7192 19.0302 13.9883V8.01165C19.0302 4.28082 17.7102 2.96082 13.9794 2.96082H13.8602C10.4594 2.96082 9.10271 4.05165 8.85521 6.98498C8.80938 7.36082 8.49771 7.64498 8.10355 7.60832C8.0132 7.60126 7.92514 7.57643 7.84441 7.53526C7.76368 7.49409 7.69188 7.43739 7.63311 7.36841C7.57435 7.29942 7.52978 7.21951 7.50197 7.13327C7.47416 7.04702 7.46365 6.95613 7.47105 6.86582C7.78271 3.21748 9.75355 1.58582 13.851 1.58582H13.9702C18.471 1.58582 20.396 3.51082 20.396 8.01165V13.9883C20.396 18.4891 18.471 20.4142 13.9702 20.4142Z" fill="#232323"/>
<path d="M13.6402 11.6875H1.8335C1.45766 11.6875 1.146 11.3758 1.146 11C1.146 10.6242 1.45766 10.3125 1.8335 10.3125H13.6402C13.8225 10.3125 13.9974 10.3849 14.1263 10.5139C14.2552 10.6428 14.3277 10.8177 14.3277 11C14.3277 11.1823 14.2552 11.3572 14.1263 11.4861C13.9974 11.6151 13.8225 11.6875 13.6402 11.6875Z" fill="#232323"/>
<path d="M11.596 14.7583C11.4219 14.7583 11.2477 14.6942 11.1102 14.5567C10.9823 14.4273 10.9106 14.2527 10.9106 14.0708C10.9106 13.8889 10.9823 13.7144 11.1102 13.585L13.6952 11L11.1102 8.415C10.9823 8.28562 10.9106 8.11106 10.9106 7.92917C10.9106 7.74727 10.9823 7.57271 11.1102 7.44333C11.376 7.1775 11.816 7.1775 12.0819 7.44333L15.1527 10.5142C15.4185 10.78 15.4185 11.22 15.1527 11.4858L12.0819 14.5567C11.9444 14.6942 11.7702 14.7583 11.596 14.7583Z" fill="#232323"/>
</svg>
